<svg xmlns="http://www.w3.org/2000/svg" width="192" height="192" fill="none" viewBox="0 0 192 192"><mask id="mask0_37242_8762" style="mask-type:alpha" width="128" height="176" x="32" y="8" maskUnits="userSpaceOnUse"><path fill="#3186FF" d="M130.334 184L61.6 184C52.6565 184 48.1848 184 44.6375 182.596C39.5029 180.563 35.4374 176.497 33.4045 171.362C32 167.815 32 163.343 32 154.4L32 37.6C32 28.6565 32 24.1848 33.4045 20.6375C35.4374 15.5029 39.5029 11.4374 44.6375 9.40447C48.1848 8 52.6565 8 61.6 8L100 8L154.793 62.7933L154.793 62.7934C156.454 64.4543 157.285 65.2848 157.923 66.2239C158.845 67.5811 159.479 69.1131 159.785 70.725C159.997 71.8404 159.997 73.0264 159.995 75.3985C159.96 124.317 159.938 124.799 159.937 154.366C159.937 163.332 159.937 167.816 158.532 171.363C156.499 176.498 152.434 180.562 147.299 182.596C143.752 184 139.279 184 130.334 184Z"/></mask><g mask="url(#mask0_37242_8762)"><path fill="#3186FF" d="M159.94 184L31.9999 184L31.9999 8.00001L99.9999 8L159.999 68L159.94 184Z"/><g filter="url(#filter0_f_37242_8762)"><path fill="url(#paint0_linear_37242_8762)" d="M43 192H149V70.2271V20H43V192Z"/></g></g><path fill="#76BBFF" d="M154.995 62.9951C152.489 61.1143 149.375 60 146 60H112.8C105.731 60 100 54.2692 100 47.2002V8L154.995 62.9951Z"/><rect width="64" height="12" x="64.001" y="114" fill="#fff" rx="6"/><rect width="48" height="12" x="64.001" y="143" fill="#fff" rx="6"/><defs><filter id="filter0_f_37242_8762" width="130" height="196" x="31" y="8" color-interpolation-filters="sRGB" filterUnits="userSpaceOnUse"><feFlood flood-opacity="0" result="BackgroundImageFix"/><feBlend in="SourceGraphic" in2="BackgroundImageFix" mode="normal" result="shape"/><feGaussianBlur result="effect1_foregroundBlur_37242_8762" stdDeviation="6"/></filter><linearGradient id="paint0_linear_37242_8762" x1="96" x2="54.612" y1="59.284" y2="171.338" gradientUnits="userSpaceOnUse"><stop offset=".33" stop-color="#3186FF"/><stop offset="1" stop-color="#A9A8FF"/></linearGradient></defs></svg>